# xmcd
#
# Track frame offsets:
#	180
#	34280
#	82172
#	127370
#	170264
#	201718
#	254976
#
# Disc length: 3973 seconds
#
# Revision: 0
# Processed by: cddbd v1.4PL0 Copyright (c) Steve Scherf et al.
# Submitted via: EasyCDDAExtractor 4.6.0.1
#
DISCID=750f8307
DTITLE=ACME All Stars Blues Band - Live at ACME Bar and Grill
DYEAR=1996
DGENRE=Blues
TTITLE0=Tell Me baby
TTITLE1=Hoochie Koochie Man
TTITLE2=Every Day
TTITLE3=The Rocker
TTITLE4=In Love With A Woman
TTITLE5=19 Years old
TTITLE6=Phone Booth
EXTD=
EXTT0=
EXTT1=
EXTT2=
EXTT3=
EXTT4=
EXTT5=
EXTT6=
PLAYORDER=
